<?xml version="1.0" encoding="UTF-8"?>
<svg width="24px" height="24px" viewBox="0 0 24 24" version="1.1" xmlns="http://www.w3.org/2000/svg" xmlns:xlink="http://www.w3.org/1999/xlink">
    <title>Group</title>
    <g id="Page-1" stroke="none" stroke-width="1" fill="none" fill-rule="evenodd">
        <g id="Artboard" transform="translate(-500, -141)" fill="#263CFF">
            <g id="Group-2" transform="translate(500, 141)">
                <path d="M17,5 C18.1045695,5 19,5.8954305 19,7 L19,17 C19,18.1045695 18.1045695,19 17,19 L7,19 C5.8954305,19 5,18.1045695 5,17 L5,7 C5,5.8954305 5.8954305,5 7,5 L17,5 Z M15.8079296,9.46242077 C15.5436792,9.26635175 15.1686819,9.2881372 14.929042,9.5277771 L11.1632869,13.2927093 L9.07095798,11.2003803 C8.80735408,10.9367764 8.37996772,10.9367764 8.11636383,11.2003803 C7.85275993,11.4639842 7.85275993,11.8913705 8.11636383,12.1549744 L10.6864013,14.7250119 C10.9500052,14.9886158 11.3773916,14.9886158 11.6409955,14.7250119 L15.8836362,10.4823713 C16.1472401,10.2187674 16.1472401,9.791381 15.8836362,9.5277771 Z" id="Combined-Shape"></path>
            </g>
        </g>
    </g>
</svg>